<?xml version="1.0" encoding="utf-8"?>
<!-- Generator: Adobe Illustrator 23.0.3, SVG Export Plug-In . SVG Version: 6.00 Build 0)  -->
<svg version="1.1" id="Layer_1" xmlns="http://www.w3.org/2000/svg" xmlns:xlink="http://www.w3.org/1999/xlink" x="0px" y="0px"
	 viewBox="0 0 512 512" style="enable-background:new 0 0 512 512;" xml:space="preserve">
<style type="text/css">
	.st0{fill-rule:evenodd;clip-rule:evenodd;fill:#CD6799;stroke:#000000;stroke-width:0.25;stroke-miterlimit:10;}
	.st1{fill-rule:evenodd;clip-rule:evenodd;fill:#F7DF1E;stroke:#000000;stroke-width:0.25;stroke-miterlimit:10;}
	.st2{fill:#FFFFFF;}
</style>
<polygon class="st0" points="0,0 512,0 0,512 "/>
<polygon class="st1" points="512,512 512,0 0,512 "/>
<path class="st2" d="M259.6,94.9c-7,7.2-11.4,15.1-14,22.9c-5.7-1.8-10.9-3.2-13.7-5.3c-3.2-2.5-5.4-3.8-8.5-7.6
	c-3-3.8-5.9-10.7-6.3-11c-0.4-0.3-2.6-1.6-6.7,2.4c-4.1,4.1-6.8,8.5-6.1,10s2.4,4.7,4.4,7.8c3.1,4.4,9,25.1,11.8,36.3
	c-4.1-1.3-7.7-2.4-9.9-4.1c-3.2-2.5-5.4-3.8-8.5-7.6c-3-3.8-5.9-10.7-6.3-11c-0.4-0.3-2.6-1.7-6.7,2.4c-4.1,4.1-6.8,8.5-6.1,10
	c0.7,1.5,2.8,4.4,4.4,7.8c1.7,3.3,14.1,35.3,17.3,43.6c1.7,4.2,2.9,7.7,3.7,10.2c0.8,2.4,0.1,0.2,0.2,0.4c0.7,2.1,1,3.2,1,3.2l0,0
	c0.4,1.5,0.8,3.1,0.5,3.4c-0.2,0.2-3.3-2-6.3-6.4c-6.3-9.1-14.8-24.6-15.3-25c-0.2-0.2-1.7-3-5.7-1c-4,1.9-3.2,4.7-3.4,4.9
	c-0.2,0.2,0.2,1.1,0.2,1.1s-10.4-16.6-19.7-7.2c-5.8,5.9-7.4,20.5-5.5,30.3c-1.1,3.9-3.5,12.3-6,21.2c-1,3.4-1.9,6.9-2.9,10.2
	l-0.9,0c-23.5-0.6-53,12.1-68.6-4.9c-5.7-6.2-19.4-23.8-0.7-80.9c15.3-46.8,44.3-67.7,58.1-62.7c19.7,7.2,25.8,51.8-2.7,88
	c-10.8,13.8-22.1,15.6-25.5,15.5c-3.6-0.1-3.9,0-4.2,1c-0.5,1.6,1.9,2.6,3.2,3.2c3.5,1.5,11.9,1.9,20.9-2.7
	c7.8-4,23.3-17.6,33.8-41.9c11.8-27.3,5.7-63.7-16.5-76.6c-22.6-13.2-58.1,11-75.9,49.2c-10.6,22.8-19.2,50.3-19.8,75.6
	c-0.8,30,9.5,45,15.8,49.2c22.5,14.9,60.4,1,79.8-0.4c-0.2,0.8-0.4,1.6-0.6,2.2c-2.6,7.7-11.7,37.8-5.6,53.6
	c6.9,17.8,22.2,20.1,27.7,17c16.9-9.7,23.7-30,20-48.3c-3.8-18.2-18.9-31.4-28.8-34.5l-0.4-0.1l1.6-6.5c1-4.2,2.2-8.2,3.2-11.7
	c2.2,4.7,5.4,9.7,11,16.1c6.5,7.5,18.5,13.6,25.8,13.4c3.2-0.1,5.2-2.1,6.5-3.4c4.3-4.4,2.7-10,0.5-16.5c-2.6-8-6.5-16.5-6.5-16.5
	s13.8,19.5,21.8,11.2c3-3,2-9.8,1.4-13.2l0,0c0,0,0-0.2-0.2-0.6c-0.1-0.4-0.2-0.8-0.3-1.2l-0.1-0.1c-0.9-3.3-3-10.6-7-22.4
	c-5.1-15.2-13-32.7-13-32.7s3.6,2.6,10.2,6.2c3.9,2.1,9.1,3.5,13.8,5.2c0.5,2.9,0.8,4.5,0.8,4.5l0.1,0c0.3,2.2,0.6,4.6,0.9,7.1
	c0.9,8.9,1.6,19.3,2.6,21.5c1.1,2.6,2.7,3.8,5.3,3.5c1.9-0.3,3.9-2.1,5.8-4.3c3.4-3.9,5-7.4,5.7-9.2c1.3-2.7,2.4-6.1,3-9.8
	c1-6.9-0.8-13.5-6.7-18.8c-3.2-2.9-7.2-4.9-11.3-6.5c-0.2-0.9-0.3-1.7-0.5-2.7c-3-15.5-8.4-30.4-8.4-30.4s3.6,2.6,10.2,6.2
	c3.4,1.8,7.7,3.1,11.9,4.5c-1,10.7,1,20,3.4,24.9c4.5,9.1,9.4,10.3,13.5,7.5c1.9-1.2,3.3-4.2,4.3-6.6c1.4-2.8,2.7-6.4,3.3-10.4
	c1-6.9,0.6-14.8-5.1-20.1c-2.7-2.4-5.9-4.2-9.2-5.7c2.9-7.1,8.1-14.8,17.3-22.1c19.6-15.8,34.3-8.3,38.2-3.1
	c4,5.3,2.9,11.5,2.5,13.5c-0.5,2-0.6,2.7,0.1,3.1c1,0.7,1.5,0.1,2.4-1.2c1.2-1.7,5.4-13.1-2.8-21.9
	C300.1,77.6,277.8,76.2,259.6,94.9L259.6,94.9z M170.6,278.2c0.7,12.2-5.1,23-10.6,24.4c-6,1.6-14-9.2-13.7-23.2
	c0.2-8.5,2-18,3.3-24.1c0.3-1.4,0.8-3.4,1.4-5.8c0.1-0.4,0.2-0.6,0.2-0.6c0.1-0.4,0.2-1,0.3-1.5
	C163.9,254.3,169.9,265.3,170.6,278.2L170.6,278.2z M183.7,206.2c3,7,11.6,24,8.3,25.9c-2.8,1.7-13.9-6.6-20.4-19.2
	c-3.3-6.4-5.7-15.5-6-19.7c-0.4-6.8,1.9-11.5,4.2-10.9C172.8,183.1,181.9,201.8,183.7,206.2z M235.7,187.4c-0.4,1.3-0.9,2.4-1.5,2.6
	c-0.4,0.1-0.4-1.1-0.4-1.1s-0.4-9.1-0.9-13.1c-0.3-2.3-0.6-4.9-1-7.9l0.5,0.5C238.2,174,236.6,183.3,235.7,187.4L235.7,187.4z
	 M256.5,153.8c-1.1,0.2-2.5-1.4-5-8.1c-1-2.7-2.2-7.6-1.9-13.8c1.6,0.8,3,1.7,4,2.8C260.8,141.8,258.4,149.6,256.5,153.8z"/>
<path d="M380.7,342.1c12.8,3,24.9,2.5,36.1-8.7c9.4-9.4,10.6-20.1,4.2-26.5c-7.8-7.7-16.7-4.3-31.5,1.5l-8.1,3.2
	c-23.3,9.4-42.8,11.6-61.3-6.8c-17-16.9-17-42.8,3.1-63c14.4-14.4,29.7-19.8,50.3-14.2l-6.2,29c-10.8-3.1-17.8-1.6-24.3,4.9
	c-6.6,6.6-6.6,15-1.1,20.5c6.8,6.8,13.8,5.3,27.7-0.2l8.1-3.3c27.5-11,46.7-13.5,65.7,5.3c20.4,20.3,15.6,47.5-5.8,69.1
	c-21,21.1-44.6,24.7-64.3,18.2L380.7,342.1z M302.9,424.1c9.9,2.7,18.4,4.8,26.2-3c7.4-7.5,9.2-15.1-2.1-26.3L249.8,318l22.6-22.7
	l77.4,77.1c23.5,23.4,20.5,47.8,0.4,67.9c-18.1,18.2-38,19.3-54.6,13.4L302.9,424.1z"/>
</svg>
